<mxfile host="Electron" agent="Mozilla/5.0 (Windows NT 10.0; Win64; x64) AppleWebKit/537.36 (KHTML, like Gecko) draw.io/27.0.5 Chrome/134.0.6998.205 Electron/35.3.0 Safari/537.36" version="27.0.5">
  <diagram name="Page-1" id="Vff8vhPPbyWnN4ahpoPx">
    <mxGraphModel dx="693" dy="559" grid="1" gridSize="10" guides="1" tooltips="1" connect="1" arrows="1" fold="1" page="1" pageScale="1" pageWidth="850" pageHeight="1100" math="0" shadow="0">
      <root>
        <mxCell id="0" />
        <mxCell id="1" parent="0" />
        <mxCell id="iuusXwL8jDP3vVpLPPCa-15" value="Leaf" style="swimlane;fontStyle=1;align=center;verticalAlign=top;childLayout=stackLayout;horizontal=1;startSize=26;horizontalStack=0;resizeParent=1;resizeParentMax=0;resizeLast=0;collapsible=1;marginBottom=0;whiteSpace=wrap;html=1;fillColor=#E6E6E6;" vertex="1" parent="1">
          <mxGeometry x="150" y="240" width="160" height="60" as="geometry" />
        </mxCell>
        <mxCell id="iuusXwL8jDP3vVpLPPCa-16" value="" style="line;strokeWidth=1;fillColor=none;align=left;verticalAlign=middle;spacingTop=-1;spacingLeft=3;spacingRight=3;rotatable=0;labelPosition=right;points=[];portConstraint=eastwest;strokeColor=inherit;" vertex="1" parent="iuusXwL8jDP3vVpLPPCa-15">
          <mxGeometry y="26" width="160" height="8" as="geometry" />
        </mxCell>
        <mxCell id="iuusXwL8jDP3vVpLPPCa-17" value="+ operation()" style="text;strokeColor=none;fillColor=none;align=left;verticalAlign=top;spacingLeft=4;spacingRight=4;overflow=hidden;rotatable=0;points=[[0,0.5],[1,0.5]];portConstraint=eastwest;whiteSpace=wrap;html=1;" vertex="1" parent="iuusXwL8jDP3vVpLPPCa-15">
          <mxGeometry y="34" width="160" height="26" as="geometry" />
        </mxCell>
        <mxCell id="iuusXwL8jDP3vVpLPPCa-18" value="IComponent" style="swimlane;fontStyle=1;align=center;verticalAlign=top;childLayout=stackLayout;horizontal=1;startSize=26;horizontalStack=0;resizeParent=1;resizeParentMax=0;resizeLast=0;collapsible=1;marginBottom=0;whiteSpace=wrap;html=1;fillColor=#E6E6E6;" vertex="1" parent="1">
          <mxGeometry x="210" y="90" width="160" height="60" as="geometry" />
        </mxCell>
        <mxCell id="iuusXwL8jDP3vVpLPPCa-19" value="" style="line;strokeWidth=1;fillColor=none;align=left;verticalAlign=middle;spacingTop=-1;spacingLeft=3;spacingRight=3;rotatable=0;labelPosition=right;points=[];portConstraint=eastwest;strokeColor=inherit;" vertex="1" parent="iuusXwL8jDP3vVpLPPCa-18">
          <mxGeometry y="26" width="160" height="8" as="geometry" />
        </mxCell>
        <mxCell id="iuusXwL8jDP3vVpLPPCa-20" value="+ operation()" style="text;strokeColor=none;fillColor=none;align=left;verticalAlign=top;spacingLeft=4;spacingRight=4;overflow=hidden;rotatable=0;points=[[0,0.5],[1,0.5]];portConstraint=eastwest;whiteSpace=wrap;html=1;" vertex="1" parent="iuusXwL8jDP3vVpLPPCa-18">
          <mxGeometry y="34" width="160" height="26" as="geometry" />
        </mxCell>
        <mxCell id="iuusXwL8jDP3vVpLPPCa-21" value="" style="endArrow=diamondThin;endFill=0;endSize=24;html=1;rounded=0;exitX=1;exitY=0.5;exitDx=0;exitDy=0;entryX=1;entryY=0.5;entryDx=0;entryDy=0;" edge="1" parent="1" source="iuusXwL8jDP3vVpLPPCa-20" target="iuusXwL8jDP3vVpLPPCa-46">
          <mxGeometry width="160" relative="1" as="geometry">
            <mxPoint x="280" y="290" as="sourcePoint" />
            <mxPoint x="540" y="320" as="targetPoint" />
            <Array as="points">
              <mxPoint x="580" y="140" />
              <mxPoint x="580" y="220" />
              <mxPoint x="580" y="279" />
            </Array>
          </mxGeometry>
        </mxCell>
        <mxCell id="iuusXwL8jDP3vVpLPPCa-22" value="0...*&lt;div&gt;child&lt;/div&gt;" style="edgeLabel;html=1;align=center;verticalAlign=middle;resizable=0;points=[];" vertex="1" connectable="0" parent="iuusXwL8jDP3vVpLPPCa-21">
          <mxGeometry x="-0.2197" y="2" relative="1" as="geometry">
            <mxPoint x="-142" y="-17" as="offset" />
          </mxGeometry>
        </mxCell>
        <mxCell id="iuusXwL8jDP3vVpLPPCa-29" value="(has a)" style="edgeLabel;html=1;align=center;verticalAlign=middle;resizable=0;points=[];" vertex="1" connectable="0" parent="iuusXwL8jDP3vVpLPPCa-21">
          <mxGeometry x="-0.1896" y="2" relative="1" as="geometry">
            <mxPoint x="-28" as="offset" />
          </mxGeometry>
        </mxCell>
        <mxCell id="iuusXwL8jDP3vVpLPPCa-23" value="1&lt;br&gt;&lt;div&gt;parent&lt;/div&gt;" style="edgeLabel;html=1;align=left;verticalAlign=middle;resizable=0;points=[];" vertex="1" connectable="0" parent="1">
          <mxGeometry x="469.9956367298079" y="209.99803592944886" as="geometry">
            <mxPoint x="70" y="51" as="offset" />
          </mxGeometry>
        </mxCell>
        <mxCell id="iuusXwL8jDP3vVpLPPCa-27" value="implements" style="html=1;verticalAlign=bottom;endArrow=block;endSize=8;curved=0;rounded=0;exitX=0.5;exitY=0;exitDx=0;exitDy=0;entryX=0.463;entryY=1.096;entryDx=0;entryDy=0;entryPerimeter=0;endFill=0;" edge="1" parent="1" source="iuusXwL8jDP3vVpLPPCa-15" target="iuusXwL8jDP3vVpLPPCa-20">
          <mxGeometry relative="1" as="geometry">
            <mxPoint x="340" y="220" as="sourcePoint" />
            <mxPoint x="260" y="220" as="targetPoint" />
          </mxGeometry>
        </mxCell>
        <mxCell id="iuusXwL8jDP3vVpLPPCa-28" value="implements" style="html=1;verticalAlign=bottom;endArrow=block;endSize=8;curved=0;rounded=0;exitX=0.058;exitY=-0.003;exitDx=0;exitDy=0;entryX=0.569;entryY=1.077;entryDx=0;entryDy=0;entryPerimeter=0;endFill=0;exitPerimeter=0;" edge="1" parent="1" source="iuusXwL8jDP3vVpLPPCa-45" target="iuusXwL8jDP3vVpLPPCa-20">
          <mxGeometry relative="1" as="geometry">
            <mxPoint x="190" y="230" as="sourcePoint" />
            <mxPoint x="294" y="162" as="targetPoint" />
          </mxGeometry>
        </mxCell>
        <mxCell id="iuusXwL8jDP3vVpLPPCa-45" value="Composite" style="swimlane;fontStyle=1;align=center;verticalAlign=top;childLayout=stackLayout;horizontal=1;startSize=26;horizontalStack=0;resizeParent=1;resizeParentMax=0;resizeLast=0;collapsible=1;marginBottom=0;whiteSpace=wrap;html=1;fillColor=#E6E6E6;" vertex="1" parent="1">
          <mxGeometry x="335" y="240" width="180" height="164" as="geometry" />
        </mxCell>
        <mxCell id="iuusXwL8jDP3vVpLPPCa-46" value="+ objects: List&amp;lt;IComponent&amp;gt;" style="text;strokeColor=none;fillColor=none;align=left;verticalAlign=top;spacingLeft=4;spacingRight=4;overflow=hidden;rotatable=0;points=[[0,0.5],[1,0.5]];portConstraint=eastwest;whiteSpace=wrap;html=1;" vertex="1" parent="iuusXwL8jDP3vVpLPPCa-45">
          <mxGeometry y="26" width="180" height="26" as="geometry" />
        </mxCell>
        <mxCell id="iuusXwL8jDP3vVpLPPCa-47" value="" style="line;strokeWidth=1;fillColor=none;align=left;verticalAlign=middle;spacingTop=-1;spacingLeft=3;spacingRight=3;rotatable=0;labelPosition=right;points=[];portConstraint=eastwest;strokeColor=inherit;" vertex="1" parent="iuusXwL8jDP3vVpLPPCa-45">
          <mxGeometry y="52" width="180" height="8" as="geometry" />
        </mxCell>
        <mxCell id="iuusXwL8jDP3vVpLPPCa-48" value="+ operation()" style="text;strokeColor=none;fillColor=none;align=left;verticalAlign=top;spacingLeft=4;spacingRight=4;overflow=hidden;rotatable=0;points=[[0,0.5],[1,0.5]];portConstraint=eastwest;whiteSpace=wrap;html=1;" vertex="1" parent="iuusXwL8jDP3vVpLPPCa-45">
          <mxGeometry y="60" width="180" height="26" as="geometry" />
        </mxCell>
        <mxCell id="iuusXwL8jDP3vVpLPPCa-49" value="add()" style="text;strokeColor=none;fillColor=none;align=left;verticalAlign=top;spacingLeft=4;spacingRight=4;overflow=hidden;rotatable=0;points=[[0,0.5],[1,0.5]];portConstraint=eastwest;whiteSpace=wrap;html=1;" vertex="1" parent="iuusXwL8jDP3vVpLPPCa-45">
          <mxGeometry y="86" width="180" height="26" as="geometry" />
        </mxCell>
        <mxCell id="iuusXwL8jDP3vVpLPPCa-50" value="remove()" style="text;strokeColor=none;fillColor=none;align=left;verticalAlign=top;spacingLeft=4;spacingRight=4;overflow=hidden;rotatable=0;points=[[0,0.5],[1,0.5]];portConstraint=eastwest;whiteSpace=wrap;html=1;" vertex="1" parent="iuusXwL8jDP3vVpLPPCa-45">
          <mxGeometry y="112" width="180" height="26" as="geometry" />
        </mxCell>
        <mxCell id="iuusXwL8jDP3vVpLPPCa-51" value="getChild()" style="text;strokeColor=none;fillColor=none;align=left;verticalAlign=top;spacingLeft=4;spacingRight=4;overflow=hidden;rotatable=0;points=[[0,0.5],[1,0.5]];portConstraint=eastwest;whiteSpace=wrap;html=1;" vertex="1" parent="iuusXwL8jDP3vVpLPPCa-45">
          <mxGeometry y="138" width="180" height="26" as="geometry" />
        </mxCell>
        <mxCell id="iuusXwL8jDP3vVpLPPCa-52" value="Client" style="html=1;whiteSpace=wrap;fillColor=#CCFFFF;" vertex="1" parent="1">
          <mxGeometry x="50" y="95" width="110" height="50" as="geometry" />
        </mxCell>
        <mxCell id="iuusXwL8jDP3vVpLPPCa-55" value="" style="endArrow=block;endFill=1;html=1;edgeStyle=orthogonalEdgeStyle;align=left;verticalAlign=top;rounded=0;exitX=1;exitY=0.5;exitDx=0;exitDy=0;" edge="1" parent="1" source="iuusXwL8jDP3vVpLPPCa-52">
          <mxGeometry x="-1" relative="1" as="geometry">
            <mxPoint x="130" y="410" as="sourcePoint" />
            <mxPoint x="210" y="120" as="targetPoint" />
          </mxGeometry>
        </mxCell>
        <mxCell id="iuusXwL8jDP3vVpLPPCa-57" value="uses" style="edgeLabel;html=1;align=center;verticalAlign=middle;resizable=0;points=[];" vertex="1" connectable="0" parent="iuusXwL8jDP3vVpLPPCa-55">
          <mxGeometry x="-0.0892" y="2" relative="1" as="geometry">
            <mxPoint as="offset" />
          </mxGeometry>
        </mxCell>
      </root>
    </mxGraphModel>
  </diagram>
</mxfile>
